<svg xmlns="http://www.w3.org/2000/svg" viewBox="0 0 600 600" width="600" height="600"><defs>
  <radialGradient id="g1-neonnightspremium" cx="30%" cy="25%" r="85%"><stop offset="0" stop-color="#F2B544" stop-opacity=".95"/><stop offset=".45" stop-color="#5C0F1C" stop-opacity=".35"/><stop offset="1" stop-color="#0B0708" stop-opacity="0"/></radialGradient>
  <linearGradient id="g2-neonnightspremium" x1="0" y1="0" x2="1" y2="1"><stop offset="0" stop-color="#F2B544"/><stop offset=".5" stop-color="#5C0F1C"/><stop offset="1" stop-color="#F3EBDD"/></linearGradient>
  <filter id="grain-neonnightspremium" x="0" y="0" width="100%" height="100%"><feTurbulence type="fractalNoise" baseFrequency=".9" numOctaves="2" stitchTiles="stitch"/><feColorMatrix values="0 0 0 0 1  0 0 0 0 1  0 0 0 0 1  0 0 0 .09 0"/></filter>
  <filter id="soft-neonnightspremium"><feGaussianBlur stdDeviation="18"/></filter>
</defs><rect width="600" height="600" fill="#0B0708"/><rect width="600" height="600" fill="#160D0F"/><circle cx="261" cy="293.7" r="155.6" fill="#F2B544" fill-opacity=".85" filter="url(#soft-neonnightspremium)"/><circle cx="233.3" cy="241.3" r="217.7" fill="#5C0F1C" fill-opacity=".85" filter="url(#soft-neonnightspremium)"/><circle cx="203.3" cy="194.1" r="210.4" fill="#F3EBDD" fill-opacity=".85" filter="url(#soft-neonnightspremium)"/><circle cx="435.6" cy="354.7" r="220.1" fill="#F2B544" fill-opacity=".85" filter="url(#soft-neonnightspremium)"/><path d="M475.9,300 Q475.9,300 459.7,360.2 Q443.6,420.5 390.2,464.9 Q336.9,509.3 272.7,483.9 Q208.5,458.5 175.8,407.8 Q143.1,357.1 127.2,294.2 Q111.3,231.3 166.5,197.9 Q221.8,164.5 277.5,138.2 Q333.2,111.8 375.9,156.2 Q418.5,200.5 447.2,250.3Z" fill="none" stroke="#F3EBDD" stroke-width="1.5" stroke-opacity=".7"/><path d="M475.9,300 Q475.9,300 459.7,360.2 Q443.6,420.5 390.2,464.9 Q336.9,509.3 272.7,483.9 Q208.5,458.5 175.8,407.8 Q143.1,357.1 127.2,294.2 Q111.3,231.3 166.5,197.9 Q221.8,164.5 277.5,138.2 Q333.2,111.8 375.9,156.2 Q418.5,200.5 447.2,250.3Z" fill="#0B0708" fill-opacity=".25" transform="translate(300 300) scale(.62) translate(-300 -300)"/><rect width="600" height="600" filter="url(#grain-neonnightspremium)"/><g font-family="Impact, 'Arial Narrow', sans-serif" fill="#F3EBDD"><text x="34" y="560" font-size="46" letter-spacing="1">NEON NIGHTS</text><text x="566" y="60" font-size="18" text-anchor="end" fill-opacity=".8" font-family="Menlo, monospace">SLAPGOD</text></g></svg>