<svg xmlns="http://www.w3.org/2000/svg" viewBox="0 0 600 600" width="600" height="600"><defs><linearGradient id="sv-neonnightspremium" x1="0" y1="0" x2="1" y2=".35"><stop offset="0" stop-color="#A98BFF"/><stop offset=".35" stop-color="#FF7AC6"/><stop offset=".6" stop-color="#FF5A3C"/><stop offset="1" stop-color="#5B8CFF"/></linearGradient><radialGradient id="rg-neonnightspremium" cx="280.5" cy="296.9" r="420" gradientUnits="userSpaceOnUse"><stop offset="0" stop-color="#FF7AC6" stop-opacity=".55"/><stop offset="1" stop-color="#0E0820"/></radialGradient></defs><rect width="600" height="600" fill="#0E0820"/><rect width="600" height="600" fill="url(#rg-neonnightspremium)"/><circle cx="280.5" cy="296.9" r="17" fill="none" stroke="#FF5A3C" stroke-opacity="0.7" stroke-width="0.7"/><circle cx="280.5" cy="296.9" r="34" fill="none" stroke="#5B8CFF" stroke-opacity="0.7" stroke-width="0.7"/><circle cx="280.5" cy="296.9" r="51" fill="none" stroke="#A98BFF" stroke-opacity="0.7" stroke-width="0.7"/><circle cx="280.5" cy="296.9" r="68" fill="none" stroke="#FF5A3C" stroke-opacity="0.7" stroke-width="0.7"/><circle cx="280.5" cy="296.9" r="85" fill="none" stroke="#5B8CFF" stroke-opacity="0.6" stroke-width="1.6"/><circle cx="280.5" cy="296.9" r="102" fill="none" stroke="#A98BFF" stroke-opacity="0.6" stroke-width="0.7"/><circle cx="280.5" cy="296.9" r="119" fill="none" stroke="#FF5A3C" stroke-opacity="0.6" stroke-width="0.7"/><circle cx="280.5" cy="296.9" r="136" fill="none" stroke="#5B8CFF" stroke-opacity="0.6" stroke-width="0.7"/><circle cx="280.5" cy="296.9" r="153" fill="none" stroke="#A98BFF" stroke-opacity="0.6" stroke-width="0.7"/><circle cx="280.5" cy="296.9" r="170" fill="none" stroke="#FF5A3C" stroke-opacity="0.5" stroke-width="1.6"/><circle cx="280.5" cy="296.9" r="187" fill="none" stroke="#5B8CFF" stroke-opacity="0.5" stroke-width="0.7"/><circle cx="280.5" cy="296.9" r="204" fill="none" stroke="#A98BFF" stroke-opacity="0.5" stroke-width="0.7"/><circle cx="280.5" cy="296.9" r="221" fill="none" stroke="#FF5A3C" stroke-opacity="0.5" stroke-width="0.7"/><circle cx="280.5" cy="296.9" r="238" fill="none" stroke="#5B8CFF" stroke-opacity="0.4" stroke-width="0.7"/><circle cx="280.5" cy="296.9" r="255" fill="none" stroke="#A98BFF" stroke-opacity="0.4" stroke-width="1.6"/><circle cx="280.5" cy="296.9" r="272" fill="none" stroke="#FF5A3C" stroke-opacity="0.4" stroke-width="0.7"/><circle cx="280.5" cy="296.9" r="289" fill="none" stroke="#5B8CFF" stroke-opacity="0.4" stroke-width="0.7"/><circle cx="280.5" cy="296.9" r="306" fill="none" stroke="#A98BFF" stroke-opacity="0.4" stroke-width="0.7"/><circle cx="280.5" cy="296.9" r="323" fill="none" stroke="#FF5A3C" stroke-opacity="0.3" stroke-width="0.7"/><circle cx="280.5" cy="296.9" r="340" fill="none" stroke="#5B8CFF" stroke-opacity="0.3" stroke-width="1.6"/><circle cx="280.5" cy="296.9" r="357" fill="none" stroke="#A98BFF" stroke-opacity="0.3" stroke-width="0.7"/><circle cx="280.5" cy="296.9" r="374" fill="none" stroke="#FF5A3C" stroke-opacity="0.3" stroke-width="0.7"/><circle cx="280.5" cy="296.9" r="391" fill="none" stroke="#5B8CFF" stroke-opacity="0.2" stroke-width="0.7"/><circle cx="280.5" cy="296.9" r="408" fill="none" stroke="#A98BFF" stroke-opacity="0.2" stroke-width="0.7"/><circle cx="280.5" cy="296.9" r="425" fill="none" stroke="#FF5A3C" stroke-opacity="0.2" stroke-width="1.6"/><circle cx="280.5" cy="296.9" r="51.4" fill="url(#sv-neonnightspremium)"/><g fill="#FAFAF9"><text x="36" y="556" font-family="Georgia, 'Times New Roman', serif" font-weight="700" font-size="40" letter-spacing="-1">Neon Nights</text><text x="564" y="58" font-family="Helvetica, Arial, sans-serif" font-size="13" letter-spacing="3" text-anchor="end" fill-opacity=".7">SLAPGOD</text></g></svg>