<svg xmlns="http://www.w3.org/2000/svg" viewBox="0 0 600 600" width="600" height="600"><defs>
  <radialGradient id="g1-cigarettesunday" cx="30%" cy="25%" r="85%"><stop offset="0" stop-color="#A8A29E" stop-opacity=".95"/><stop offset=".45" stop-color="#D6D3D1" stop-opacity=".35"/><stop offset="1" stop-color="#0C0A09" stop-opacity="0"/></radialGradient>
  <linearGradient id="g2-cigarettesunday" x1="0" y1="0" x2="1" y2="1"><stop offset="0" stop-color="#A8A29E"/><stop offset=".5" stop-color="#D6D3D1"/><stop offset="1" stop-color="#292524"/></linearGradient>
  <filter id="grain-cigarettesunday" x="0" y="0" width="100%" height="100%"><feTurbulence type="fractalNoise" baseFrequency=".9" numOctaves="2" stitchTiles="stitch"/><feColorMatrix values="0 0 0 0 1  0 0 0 0 1  0 0 0 0 1  0 0 0 .09 0"/></filter>
  <filter id="soft-cigarettesunday"><feGaussianBlur stdDeviation="18"/></filter>
</defs><rect width="600" height="600" fill="#0C0A09"/><rect width="600" height="600" fill="#1C1917"/><circle cx="343" cy="355.2" r="118" fill="#A8A29E" fill-opacity=".85" filter="url(#soft-cigarettesunday)"/><circle cx="257.5" cy="317" r="156" fill="#D6D3D1" fill-opacity=".85" filter="url(#soft-cigarettesunday)"/><circle cx="437.9" cy="143.9" r="199.8" fill="#292524" fill-opacity=".85" filter="url(#soft-cigarettesunday)"/><circle cx="289.6" cy="335.7" r="190" fill="#A8A29E" fill-opacity=".85" filter="url(#soft-cigarettesunday)"/><path d="M504.8,300 Q504.8,300 482.1,366.9 Q459.4,433.8 393.4,444.5 Q327.4,455.3 258.8,472.6 Q190.3,490 161.6,425.4 Q132.8,360.8 121.8,296 Q110.7,231.1 157,181.7 Q203.2,132.4 267.8,124.1 Q332.5,115.9 389.6,146.4 Q446.7,176.9 475.7,238.5Z" fill="none" stroke="#FAFAF9" stroke-width="1.5" stroke-opacity=".7"/><path d="M504.8,300 Q504.8,300 482.1,366.9 Q459.4,433.8 393.4,444.5 Q327.4,455.3 258.8,472.6 Q190.3,490 161.6,425.4 Q132.8,360.8 121.8,296 Q110.7,231.1 157,181.7 Q203.2,132.4 267.8,124.1 Q332.5,115.9 389.6,146.4 Q446.7,176.9 475.7,238.5Z" fill="#0C0A09" fill-opacity=".25" transform="translate(300 300) scale(.62) translate(-300 -300)"/><rect width="600" height="600" filter="url(#grain-cigarettesunday)"/><text x="566" y="570" font-size="16" text-anchor="end" fill="#FAFAF9" fill-opacity=".75" font-family="Menlo, monospace">SG</text></svg>