<svg xmlns="http://www.w3.org/2000/svg" viewBox="0 0 600 600" width="600" height="600"><defs><linearGradient id="sv-silkalarm" x1="0" y1="0" x2="1" y2=".35"><stop offset="0" stop-color="#A8AAAD"/><stop offset=".13" stop-color="#F0F1F2"/><stop offset=".38" stop-color="#C8CACE"/><stop offset=".72" stop-color="#E6E7E9"/><stop offset="1" stop-color="#B9BCC1"/></linearGradient><radialGradient id="ag-silkalarm" cx="300" cy="420.1" r="420" gradientUnits="userSpaceOnUse"><stop offset="0" stop-color="#78716C" stop-opacity=".55"/><stop offset="1" stop-color="#1C1917" stop-opacity="0"/></radialGradient></defs><rect width="600" height="600" fill="#1C1917"/><rect width="600" height="600" fill="url(#ag-silkalarm)"/><path d="M240 420.1 A60 60 0 0 1 360 420.1" fill="none" stroke="url(#sv-silkalarm)" stroke-opacity="1" stroke-width="14"/><path d="M202 420.1 A98 98 0 0 1 398 420.1" fill="none" stroke="#FAFAF9" stroke-opacity="0.5" stroke-width="1.2"/><path d="M164 420.1 A136 136 0 0 1 436 420.1" fill="none" stroke="#FAFAF9" stroke-opacity="0.5" stroke-width="1.2"/><path d="M126 420.1 A174 174 0 0 1 474 420.1" fill="none" stroke="#FAFAF9" stroke-opacity="0.4" stroke-width="1.2"/><path d="M88 420.1 A212 212 0 0 1 512 420.1" fill="none" stroke="#FAFAF9" stroke-opacity="0.4" stroke-width="1.2"/><path d="M50 420.1 A250 250 0 0 1 550 420.1" fill="none" stroke="#FAFAF9" stroke-opacity="0.3" stroke-width="1.2"/><path d="M12 420.1 A288 288 0 0 1 588 420.1" fill="none" stroke="#FAFAF9" stroke-opacity="0.3" stroke-width="1.2"/><path d="M-26 420.1 A326 326 0 0 1 626 420.1" fill="none" stroke="#FAFAF9" stroke-opacity="0.2" stroke-width="1.2"/><path d="M-64 420.1 A364 364 0 0 1 664 420.1" fill="none" stroke="#FAFAF9" stroke-opacity="0.2" stroke-width="1.2"/><rect y="420.1" width="600" height="179.89999999999998" fill="#0C0A09"/><text x="564" y="566" font-family="Helvetica, Arial, sans-serif" font-size="12" letter-spacing="3" text-anchor="end" fill="#FAFAF9" fill-opacity=".6">SLAPGOD</text></svg>