<svg xmlns="http://www.w3.org/2000/svg" viewBox="0 0 600 600" width="600" height="600"><defs><linearGradient id="sv-velvetstatic" x1="0" y1="0" x2="1" y2=".35"><stop offset="0" stop-color="#A98BFF"/><stop offset=".35" stop-color="#FF7AC6"/><stop offset=".6" stop-color="#FF5A3C"/><stop offset="1" stop-color="#5B8CFF"/></linearGradient><radialGradient id="ag-velvetstatic" cx="300" cy="518.9" r="420" gradientUnits="userSpaceOnUse"><stop offset="0" stop-color="#A98BFF" stop-opacity=".75"/><stop offset=".5" stop-color="#5B8CFF" stop-opacity=".25"/><stop offset="1" stop-color="#0E0820" stop-opacity="0"/></radialGradient></defs><rect width="600" height="600" fill="#0E0820"/><rect width="600" height="600" fill="url(#ag-velvetstatic)"/><path d="M240 518.9 A60 60 0 0 1 360 518.9" fill="none" stroke="url(#sv-velvetstatic)" stroke-opacity="1" stroke-width="14"/><path d="M202 518.9 A98 98 0 0 1 398 518.9" fill="none" stroke="#FF7AC6" stroke-opacity="0.8" stroke-width="1.2"/><path d="M164 518.9 A136 136 0 0 1 436 518.9" fill="none" stroke="#FF5A3C" stroke-opacity="0.8" stroke-width="1.2"/><path d="M126 518.9 A174 174 0 0 1 474 518.9" fill="none" stroke="#5B8CFF" stroke-opacity="0.7" stroke-width="1.2"/><path d="M88 518.9 A212 212 0 0 1 512 518.9" fill="none" stroke="#A98BFF" stroke-opacity="0.6" stroke-width="1.2"/><path d="M50 518.9 A250 250 0 0 1 550 518.9" fill="none" stroke="#FF7AC6" stroke-opacity="0.6" stroke-width="1.2"/><path d="M12 518.9 A288 288 0 0 1 588 518.9" fill="none" stroke="#FF5A3C" stroke-opacity="0.5" stroke-width="1.2"/><path d="M-26 518.9 A326 326 0 0 1 626 518.9" fill="none" stroke="#5B8CFF" stroke-opacity="0.4" stroke-width="1.2"/><path d="M-64 518.9 A364 364 0 0 1 664 518.9" fill="none" stroke="#A98BFF" stroke-opacity="0.3" stroke-width="1.2"/><rect y="518.9" width="600" height="81.10000000000002" fill="#0E0820"/><text x="564" y="566" font-family="Helvetica, Arial, sans-serif" font-size="12" letter-spacing="3" text-anchor="end" fill="#FAFAF9" fill-opacity=".6">SLAPGOD</text></svg>